#define idle_3_width 16
#define idle_3_height 24
static unsigned char idle_3_bits[] = {
   0x00, 0x00, 0x00, 0x00, 0x00, 0x00, 0x00, 0x00, 0x00, 0x00, 0x00, 0x00,
   0x00, 0x00, 0x00, 0x00, 0x00, 0x00, 0x00, 0x00, 0xf0, 0x1f, 0x78, 0x10,
   0x3c, 0x10, 0xfc, 0x38, 0xdc, 0x18, 0xdc, 0x18, 0x3c, 0x30, 0xfc, 0x7f,
   0xf8, 0x3f, 0xf8, 0x3f, 0x88, 0x1f, 0x88, 0x1f, 0xf8, 0x1f, 0xb8, 0x0f };
