#define idle_3_width 16
#define idle_3_height 24
static unsigned char idle_3_bits[] = {
   0x00, 0x00, 0x00, 0x00, 0x00, 0x00, 0x00, 0x00, 0x00, 0x00, 0x00, 0x00,
   0x00, 0x00, 0x00, 0x00, 0xe0, 0x07, 0xf0, 0x0f, 0xf8, 0x1f, 0xf8, 0x1f,
   0x3c, 0x10, 0x1c, 0x10, 0xdc, 0x18, 0xdc, 0x78, 0x3c, 0x70, 0xfc, 0x7f,
   0xf8, 0x3f, 0xc8, 0x3f, 0x88, 0x1f, 0x08, 0x17, 0xc8, 0x13, 0x38, 0x0e };
