#define idle_0_width 16
#define idle_0_height 24
static unsigned char idle_0_bits[] = {
   0x00, 0x00, 0x00, 0x00, 0x00, 0x00, 0x00, 0x00, 0x00, 0x00, 0x00, 0x00,
   0xf8, 0x1f, 0xf8, 0x1f, 0xf8, 0x1f, 0xf8, 0x1f, 0x38, 0x10, 0x18, 0x10,
   0xf8, 0x38, 0xc8, 0x18, 0xc8, 0x18, 0x08, 0x10, 0x08, 0x10, 0x08, 0x10,
   0xf8, 0x1f, 0x08, 0x10, 0x08, 0x10, 0xf8, 0x1f, 0x38, 0x0e, 0x18, 0x06 };
