#define idle_2_width 16
#define idle_2_height 24
static unsigned char idle_2_bits[] = {
   0x00, 0x00, 0x00, 0x00, 0x00, 0x00, 0x00, 0x00, 0x00, 0x00, 0x00, 0x00,
   0x00, 0x00, 0x00, 0x00, 0x00, 0x00, 0xf8, 0x1f, 0x08, 0x10, 0x08, 0x10,
   0x08, 0x10, 0x08, 0x10, 0xe8, 0x38, 0xc8, 0x18, 0xc8, 0x18, 0x08, 0x10,
   0x08, 0x10, 0x08, 0x10, 0xf8, 0x1f, 0x08, 0x10, 0x08, 0x10, 0xf8, 0x1f };
